<svg width="1200" height="360" viewBox="0 0 1200 360" fill="none" xmlns="http://www.w3.org/2000/svg" role="img" aria-labelledby="title desc">
  <title id="title">PF Control logo</title>
  <desc id="desc">PF Control brand logo with monogram and pulse motif.</desc>
  <defs>
    <linearGradient id="bg" x1="20" y1="20" x2="320" y2="320" gradientUnits="userSpaceOnUse">
      <stop offset="0" stop-color="#0B2239"/>
      <stop offset="1" stop-color="#123D62"/>
    </linearGradient>
    <linearGradient id="accent" x1="54" y1="210" x2="285" y2="210" gradientUnits="userSpaceOnUse">
      <stop offset="0" stop-color="#00D084"/>
      <stop offset="1" stop-color="#19B8FF"/>
    </linearGradient>
  </defs>

  <rect x="20" y="20" width="300" height="300" rx="72" fill="url(#bg)"/>
  <rect x="20" y="20" width="300" height="300" rx="72" stroke="#1D5D8F" stroke-width="4"/>

  <rect x="92" y="82" width="28" height="154" rx="10" fill="#F3F8FC"/>
  <path d="M120 82H176C197 82 214 99 214 120C214 141 197 158 176 158H120V82Z" fill="#F3F8FC"/>

  <rect x="176" y="82" width="26" height="154" rx="9" fill="#A9E6FF"/>
  <rect x="202" y="82" width="60" height="24" rx="8" fill="#A9E6FF"/>
  <rect x="202" y="136" width="48" height="22" rx="8" fill="#A9E6FF"/>

  <polyline points="54,210 98,210 121,176 144,230 169,193 194,210 222,170 250,210 286,210" fill="none" stroke="url(#accent)" stroke-width="10" stroke-linecap="round" stroke-linejoin="round"/>

  <text x="370" y="168" fill="#0C2238" font-family="Sora, Poppins, Segoe UI, sans-serif" font-size="88" font-weight="750" letter-spacing="1.2">PF CONTROL</text>
  <text x="372" y="220" fill="#2C5578" font-family="Sora, Poppins, Segoe UI, sans-serif" font-size="34" font-weight="500" letter-spacing="5.4">PERFORMANCE SYSTEM</text>
</svg>
