<svg xmlns="http://www.w3.org/2000/svg" viewBox="0 0 64 64" role="img" aria-label="WhatsApp">
  <defs>
    <linearGradient id="g" x1="0" y1="0" x2="1" y2="1">
      <stop offset="0%" stop-color="#25d366"/>
      <stop offset="100%" stop-color="#128c7e"/>
    </linearGradient>
  </defs>
  <circle cx="32" cy="32" r="30" fill="url(#g)"/>
  <path d="M19 49l3.2-9.6a18 18 0 1 1 7.2 6.6L19 49z" fill="#fff" opacity="0.96"/>
  <path d="M27.8 23.8c.5-1.1.9-1.1 1.4-1.1h1.1c.4 0 .8.2 1 .7l1.4 3.3c.2.5.1 1-.2 1.4l-1.2 1.5a.8.8 0 0 0-.2.8c.5 1.4 1.5 2.9 2.9 4.1 1.4 1.2 2.8 2 4.1 2.3.3.1.6 0 .8-.2l1.5-1.2c.5-.4 1-.4 1.5-.2l3.2 1.5c.5.2.7.6.7 1v1.1c0 .5 0 .9-1.1 1.4-1.2.6-3.7.5-6.3-.6-2.2-.9-4.7-2.5-6.9-4.5-2.1-1.9-3.8-4.4-4.9-6.8-1.2-2.7-1.3-5.3-.8-6.5z" fill="#25d366"/>
</svg>
