<svg xmlns="http://www.w3.org/2000/svg" width="390" height="844" viewBox="0 0 390 844">
  <defs>
    <linearGradient id="bg" x1="0" y1="0" x2="1" y2="1">
      <stop offset="0%" stop-color="#07090f"/>
      <stop offset="100%" stop-color="#0c1020"/>
    </linearGradient>
    <linearGradient id="hero" x1="0" y1="0" x2="1" y2="0">
      <stop offset="0%" stop-color="#7c3aed"/>
      <stop offset="100%" stop-color="#06b6d4"/>
    </linearGradient>
  </defs>
  <rect width="390" height="844" fill="url(#bg)"/>
  <rect x="20" y="24" width="350" height="44" rx="22" fill="#0f1322" stroke="#272b3a"/>
  <text x="32" y="52" fill="#f3f4f6" font-size="14" font-family="Arial">18:30</text>
  <text x="334" y="52" fill="#f43f5e" font-size="14" font-family="Arial">122</text>

  <text x="24" y="114" fill="#f9fafb" font-size="40" font-family="Arial" font-weight="700">Buenas tardes</text>
  <text x="24" y="144" fill="#cbd5e1" font-size="26" font-family="Arial">Valentino</text>
  <circle cx="334" cy="126" r="38" fill="#111827" stroke="#475569"/>

  <rect x="20" y="176" width="350" height="150" rx="20" fill="#151925" stroke="#30364b"/>
  <text x="36" y="210" fill="#f8fafc" font-size="24" font-family="Arial" font-weight="700">Plan de 5 dias</text>
  <text x="36" y="238" fill="#94a3b8" font-size="16" font-family="Arial">Membresia activa</text>
  <text x="36" y="278" fill="#f8fafc" font-size="22" font-family="Arial" font-weight="700">Hoy: Fuerza Tren Superior</text>
  <text x="36" y="304" fill="#94a3b8" font-size="16" font-family="Arial">45 min · 8 ejercicios</text>

  <rect x="20" y="346" width="166" height="52" rx="14" fill="#1f2433"/>
  <rect x="204" y="346" width="166" height="52" rx="14" fill="#1f2433"/>
  <text x="45" y="378" fill="#d1d5db" font-size="19" font-family="Arial">Cuestionarios</text>
  <text x="248" y="378" fill="#d1d5db" font-size="19" font-family="Arial">Reservas</text>

  <rect x="20" y="418" width="350" height="120" rx="18" fill="url(#hero)" opacity="0.92"/>
  <text x="36" y="454" fill="#eef2ff" font-size="18" font-family="Arial">Frase del dia</text>
  <text x="36" y="486" fill="#ffffff" font-size="34" font-family="Arial" font-weight="700">"El unico mal</text>
  <text x="36" y="522" fill="#ffffff" font-size="34" font-family="Arial" font-weight="700">entrenamiento es</text>
  <text x="36" y="558" fill="#ffffff" font-size="34" font-family="Arial" font-weight="700">el que no se hace"</text>

  <text x="24" y="606" fill="#f8fafc" font-size="30" font-family="Arial" font-weight="700">Carga rapida</text>
  <rect x="20" y="624" width="166" height="72" rx="14" fill="#111827" stroke="#1e293b"/>
  <rect x="204" y="624" width="166" height="72" rx="14" fill="#111827" stroke="#1e293b"/>
  <text x="42" y="668" fill="#93c5fd" font-size="27" font-family="Arial" font-weight="700">Agua</text>
  <text x="232" y="668" fill="#86efac" font-size="27" font-family="Arial" font-weight="700">Sueno</text>

  <rect x="0" y="758" width="390" height="86" fill="#0b0f19"/>
  <circle cx="74" cy="801" r="20" fill="#1f2433"/>
  <circle cx="195" cy="801" r="20" fill="#7c3aed"/>
  <circle cx="316" cy="801" r="20" fill="#1f2433"/>
</svg>