<svg xmlns="http://www.w3.org/2000/svg" width="390" height="844" viewBox="0 0 390 844">
  <rect width="390" height="844" fill="#07090f"/>
  <text x="24" y="56" fill="#f8fafc" font-size="34" font-family="Arial" font-weight="700">Detalle ejercicio</text>
  <text x="24" y="94" fill="#94a3b8" font-size="18" font-family="Arial">Press plano con barra</text>

  <rect x="20" y="118" width="350" height="52" rx="14" fill="#111827"/>
  <rect x="26" y="124" width="108" height="40" rx="12" fill="#7c3aed"/>
  <text x="45" y="150" fill="#ffffff" font-size="18" font-family="Arial" font-weight="700">Descripcion</text>
  <text x="155" y="150" fill="#cbd5e1" font-size="18" font-family="Arial">Nuevo registro</text>
  <text x="286" y="150" fill="#cbd5e1" font-size="18" font-family="Arial">Registros</text>

  <rect x="20" y="188" width="350" height="198" rx="18" fill="#171b27" stroke="#2a3244"/>
  <rect x="36" y="208" width="140" height="90" rx="12" fill="#334155"/>
  <polygon points="102,232 102,274 136,253" fill="#ef4444"/>
  <text x="196" y="232" fill="#f8fafc" font-size="24" font-family="Arial" font-weight="700">Video tecnico</text>
  <text x="196" y="264" fill="#cbd5e1" font-size="16" font-family="Arial">Ver ejecucion correcta</text>
  <text x="196" y="286" fill="#cbd5e1" font-size="16" font-family="Arial">Errores frecuentes</text>

  <text x="36" y="332" fill="#f8fafc" font-size="17" font-family="Arial">Musculos</text>
  <rect x="36" y="344" width="72" height="28" rx="10" fill="#7c3aed"/>
  <rect x="116" y="344" width="96" height="28" rx="10" fill="#7c3aed"/>
  <rect x="220" y="344" width="110" height="28" rx="10" fill="#7c3aed"/>
  <text x="48" y="363" fill="#ffffff" font-size="13" font-family="Arial">Gluteo</text>
  <text x="130" y="363" fill="#ffffff" font-size="13" font-family="Arial">Cuadriceps</text>
  <text x="236" y="363" fill="#ffffff" font-size="13" font-family="Arial">Isquiotibiales</text>

  <rect x="20" y="410" width="350" height="120" rx="18" fill="#151925"/>
  <text x="36" y="444" fill="#f8fafc" font-size="22" font-family="Arial" font-weight="700">Proxima meta sugerida</text>
  <text x="36" y="476" fill="#a5b4fc" font-size="24" font-family="Arial" font-weight="700">22.5 kg x 8 reps</text>
  <text x="36" y="504" fill="#94a3b8" font-size="16" font-family="Arial">Basado en tus ultimos 3 entrenos</text>

  <rect x="20" y="548" width="350" height="168" rx="18" fill="#111827"/>
  <text x="36" y="582" fill="#f8fafc" font-size="22" font-family="Arial" font-weight="700">Tips de tecnica</text>
  <text x="36" y="612" fill="#cbd5e1" font-size="16" font-family="Arial">1. Escapulas estables en el banco</text>
  <text x="36" y="638" fill="#cbd5e1" font-size="16" font-family="Arial">2. Baja controlado en 2 segundos</text>
  <text x="36" y="664" fill="#cbd5e1" font-size="16" font-family="Arial">3. Exhala al empujar</text>
  <text x="36" y="690" fill="#cbd5e1" font-size="16" font-family="Arial">4. Si hay dolor de hombro, baja carga</text>

  <rect x="0" y="758" width="390" height="86" fill="#0b0f19"/>
  <circle cx="74" cy="801" r="20" fill="#1f2433"/>
  <circle cx="195" cy="801" r="20" fill="#7c3aed"/>
  <circle cx="316" cy="801" r="20" fill="#1f2433"/>
</svg>