<svg xmlns="http://www.w3.org/2000/svg" width="390" height="844" viewBox="0 0 390 844">
  <rect width="390" height="844" fill="#07090f"/>
  <text x="24" y="56" fill="#f8fafc" font-size="34" font-family="Arial" font-weight="700">Nuevo registro</text>
  <text x="24" y="92" fill="#94a3b8" font-size="18" font-family="Arial">Press plano con barra · Serie 1</text>

  <rect x="20" y="120" width="350" height="64" rx="14" fill="#171b27" stroke="#2a3244"/>
  <text x="36" y="148" fill="#93c5fd" font-size="16" font-family="Arial">Sugerencia inteligente</text>
  <text x="36" y="170" fill="#f8fafc" font-size="20" font-family="Arial" font-weight="700">22.5 kg · 8 reps · RIR 2</text>

  <rect x="20" y="204" width="350" height="64" rx="12" fill="#151925"/>
  <text x="36" y="244" fill="#e2e8f0" font-size="22" font-family="Arial">Fecha: Lun 23/03</text>

  <rect x="20" y="282" width="168" height="64" rx="12" fill="#151925"/>
  <rect x="202" y="282" width="168" height="64" rx="12" fill="#151925"/>
  <text x="36" y="322" fill="#e2e8f0" font-size="22" font-family="Arial">Reps: 8</text>
  <text x="218" y="322" fill="#e2e8f0" font-size="22" font-family="Arial">Carga: 22.5</text>

  <rect x="20" y="360" width="168" height="64" rx="12" fill="#151925"/>
  <rect x="202" y="360" width="168" height="64" rx="12" fill="#151925"/>
  <text x="36" y="400" fill="#e2e8f0" font-size="22" font-family="Arial">RIR: 2</text>
  <text x="218" y="400" fill="#e2e8f0" font-size="22" font-family="Arial">Molestia: 1/10</text>

  <rect x="20" y="438" width="350" height="92" rx="12" fill="#151925"/>
  <text x="36" y="474" fill="#94a3b8" font-size="18" font-family="Arial">Comentario rapido</text>
  <text x="36" y="502" fill="#e2e8f0" font-size="19" font-family="Arial">Buena tecnica, estable en todas las reps.</text>

  <rect x="20" y="548" width="350" height="58" rx="14" fill="#16a34a"/>
  <text x="132" y="585" fill="#ffffff" font-size="24" font-family="Arial" font-weight="700">Guardar registro</text>

  <rect x="20" y="620" width="350" height="94" rx="18" fill="#111827" stroke="#1d4ed8"/>
  <text x="36" y="660" fill="#93c5fd" font-size="20" font-family="Arial" font-weight="700">Push in-app</text>
  <text x="36" y="692" fill="#f8fafc" font-size="24" font-family="Arial">Registro guardado con exito</text>

  <rect x="0" y="758" width="390" height="86" fill="#0b0f19"/>
  <circle cx="74" cy="801" r="20" fill="#1f2433"/>
  <circle cx="195" cy="801" r="20" fill="#7c3aed"/>
  <circle cx="316" cy="801" r="20" fill="#1f2433"/>
</svg>