<svg xmlns="http://www.w3.org/2000/svg" width="390" height="844" viewBox="0 0 390 844">
  <rect width="390" height="844" fill="#07090f"/>
  <text x="24" y="56" fill="#f8fafc" font-size="34" font-family="Arial" font-weight="700">Registros</text>
  <text x="24" y="90" fill="#94a3b8" font-size="18" font-family="Arial">Press plano con barra</text>

  <rect x="20" y="114" width="350" height="54" rx="14" fill="#111827"/>
  <rect x="26" y="120" width="80" height="42" rx="12" fill="#7c3aed"/>
  <text x="48" y="147" fill="#ffffff" font-size="18" font-family="Arial">7 dias</text>
  <text x="130" y="147" fill="#cbd5e1" font-size="18" font-family="Arial">30 dias</text>
  <text x="218" y="147" fill="#cbd5e1" font-size="18" font-family="Arial">Historico</text>

  <rect x="20" y="184" width="350" height="190" rx="18" fill="#151925" stroke="#2a3244"/>
  <text x="36" y="214" fill="#f8fafc" font-size="19" font-family="Arial" font-weight="700">Tendencia carga</text>
  <line x1="48" y1="338" x2="344" y2="338" stroke="#334155"/>
  <line x1="48" y1="304" x2="344" y2="304" stroke="#334155"/>
  <line x1="48" y1="270" x2="344" y2="270" stroke="#334155"/>
  <polyline points="54,320 108,312 162,302 216,286 270,280 324,262" fill="none" stroke="#22d3ee" stroke-width="4"/>
  <circle cx="324" cy="262" r="6" fill="#22d3ee"/>
  <text x="280" y="250" fill="#22d3ee" font-size="16" font-family="Arial" font-weight="700">PR 25kg</text>

  <rect x="20" y="392" width="350" height="96" rx="16" fill="#111827"/>
  <text x="36" y="426" fill="#f8fafc" font-size="22" font-family="Arial" font-weight="700">Lun 23/03</text>
  <text x="36" y="456" fill="#cbd5e1" font-size="18" font-family="Arial">Serie 1 · 8 reps · 22.5 kg · RIR 2</text>
  <text x="36" y="478" fill="#a5b4fc" font-size="16" font-family="Arial">Comentario: tecnica solida</text>

  <rect x="20" y="502" width="350" height="96" rx="16" fill="#111827"/>
  <text x="36" y="536" fill="#f8fafc" font-size="22" font-family="Arial" font-weight="700">Jue 19/03</text>
  <text x="36" y="566" fill="#cbd5e1" font-size="18" font-family="Arial">Serie 1 · 8 reps · 20 kg · RIR 3</text>
  <text x="36" y="588" fill="#94a3b8" font-size="16" font-family="Arial">Sin molestias reportadas</text>

  <rect x="20" y="612" width="350" height="96" rx="16" fill="#111827"/>
  <text x="36" y="646" fill="#f8fafc" font-size="22" font-family="Arial" font-weight="700">Mar 16/03</text>
  <text x="36" y="676" fill="#cbd5e1" font-size="18" font-family="Arial">Serie 1 · 6 reps · 20 kg · RIR 2</text>
  <text x="36" y="698" fill="#94a3b8" font-size="16" font-family="Arial">Fatiga alta al final</text>

  <rect x="0" y="758" width="390" height="86" fill="#0b0f19"/>
  <circle cx="74" cy="801" r="20" fill="#1f2433"/>
  <circle cx="195" cy="801" r="20" fill="#7c3aed"/>
  <circle cx="316" cy="801" r="20" fill="#1f2433"/>
</svg>