<svg xmlns="http://www.w3.org/2000/svg" width="390" height="844" viewBox="0 0 390 844">
  <rect width="390" height="844" fill="#05070c"/>
  <rect x="0" y="0" width="390" height="844" fill="#000000" opacity="0.52"/>

  <rect x="16" y="152" width="358" height="530" rx="24" fill="#10141f" stroke="#2a3244"/>
  <text x="38" y="204" fill="#f8fafc" font-size="48" font-family="Arial" font-weight="700">Evaluacion</text>
  <text x="38" y="244" fill="#cbd5e1" font-size="29" font-family="Arial">de la sesion</text>

  <rect x="38" y="272" width="314" height="10" rx="5" fill="#1f2937"/>
  <rect x="38" y="272" width="210" height="10" rx="5" fill="#22c55e"/>
  <text x="126" y="318" fill="#94a3b8" font-size="24" font-family="Arial">Pregunta 3 de 6</text>

  <text x="38" y="366" fill="#f8fafc" font-size="41" font-family="Arial" font-weight="700">Que tan cansado</text>
  <text x="38" y="404" fill="#f8fafc" font-size="41" font-family="Arial" font-weight="700">terminaste?</text>
  <text x="38" y="440" fill="#94a3b8" font-size="22" font-family="Arial">Marca un numero del 1 al 10.</text>

  <rect x="38" y="468" width="58" height="52" rx="12" fill="#3f3f46"/>
  <rect x="106" y="468" width="58" height="52" rx="12" fill="#3f3f46"/>
  <rect x="174" y="468" width="58" height="52" rx="12" fill="#3f3f46"/>
  <rect x="242" y="468" width="58" height="52" rx="12" fill="#22c55e"/>
  <rect x="310" y="468" width="42" height="52" rx="12" fill="#3f3f46"/>

  <text x="58" y="502" fill="#f8fafc" font-size="24" font-family="Arial">1</text>
  <text x="126" y="502" fill="#f8fafc" font-size="24" font-family="Arial">2</text>
  <text x="194" y="502" fill="#f8fafc" font-size="24" font-family="Arial">3</text>
  <text x="262" y="502" fill="#052e16" font-size="24" font-family="Arial" font-weight="700">4</text>
  <text x="322" y="502" fill="#f8fafc" font-size="24" font-family="Arial">5</text>

  <rect x="38" y="534" width="58" height="52" rx="12" fill="#3f3f46"/>
  <rect x="106" y="534" width="58" height="52" rx="12" fill="#3f3f46"/>
  <rect x="174" y="534" width="58" height="52" rx="12" fill="#3f3f46"/>
  <rect x="242" y="534" width="58" height="52" rx="12" fill="#3f3f46"/>
  <rect x="310" y="534" width="42" height="52" rx="12" fill="#3f3f46"/>

  <text x="58" y="568" fill="#f8fafc" font-size="24" font-family="Arial">6</text>
  <text x="126" y="568" fill="#f8fafc" font-size="24" font-family="Arial">7</text>
  <text x="194" y="568" fill="#f8fafc" font-size="24" font-family="Arial">8</text>
  <text x="262" y="568" fill="#f8fafc" font-size="24" font-family="Arial">9</text>
  <text x="316" y="568" fill="#f8fafc" font-size="24" font-family="Arial">10</text>

  <rect x="38" y="610" width="130" height="56" rx="16" fill="#3f3f46"/>
  <rect x="222" y="610" width="130" height="56" rx="16" fill="#22c55e"/>
  <text x="68" y="645" fill="#f8fafc" font-size="20" font-family="Arial">Anterior</text>
  <text x="264" y="645" fill="#052e16" font-size="20" font-family="Arial" font-weight="700">Siguiente</text>
</svg>